<svg width="95" height="337" viewBox="0 0 95 337" fill="none" xmlns="http://www.w3.org/2000/svg">
<mask id="path-1-inside-1" fill="white">
<path fill-rule="evenodd" clip-rule="evenodd" d="M16.1402 337H78.8598C88.4244 332.26 95 322.398 95 311V144C95 127.984 82.0163 115 66 115H68V0H26V115H29C12.9837 115 0 127.984 0 144V311C0 322.398 6.5756 332.26 16.1402 337Z"/>
</mask>
<path fill-rule="evenodd" clip-rule="evenodd" d="M16.1402 337H78.8598C88.4244 332.26 95 322.398 95 311V144C95 127.984 82.0163 115 66 115H68V0H26V115H29C12.9837 115 0 127.984 0 144V311C0 322.398 6.5756 332.26 16.1402 337Z" fill="#EC7B3F"/>
<path d="M78.8598 337V338H79.094L79.3038 337.896L78.8598 337ZM16.1402 337L15.6962 337.896L15.906 338H16.1402V337ZM68 115V116H69V115H68ZM68 0H69V-1H68V0ZM26 0V-1H25V0H26ZM26 115H25V116H26V115ZM78.8598 336H16.1402V338H78.8598V336ZM94 311C94 322.004 87.653 331.526 78.4157 336.104L79.3038 337.896C89.1958 332.994 96 322.793 96 311H94ZM94 144V311H96V144H94ZM66 116C81.464 116 94 128.536 94 144H96C96 127.431 82.5685 114 66 114V116ZM68 114H66V116H68V114ZM67 0V115H69V0H67ZM26 1H68V-1H26V1ZM27 115V0H25V115H27ZM29 114H26V116H29V114ZM1 144C1 128.536 13.536 116 29 116V114C12.4315 114 -1 127.431 -1 144H1ZM1 311V144H-1V311H1ZM16.5843 336.104C7.34702 331.526 1 322.004 1 311H-1C-1 322.793 5.80418 332.994 15.6962 337.896L16.5843 336.104Z" fill="#C0C0C0" mask="url(#path-1-inside-1)"/>
<path d="M26.9961 204.816C26.9961 205.193 26.8965 205.525 26.6973 205.812C26.5202 206.078 26.4538 206.41 26.498 206.809C26.1882 206.986 25.9336 207.218 25.7344 207.506C25.5352 207.794 25.347 208.092 25.1699 208.402C23.709 209.354 22.1374 210.118 20.4551 210.693C18.7949 211.291 17.0794 211.59 15.3086 211.59C15.1979 211.59 15.0983 211.535 15.0098 211.424C14.9212 211.335 14.8327 211.236 14.7441 211.125C14.6556 211.014 14.556 210.904 14.4453 210.793C14.3568 210.704 14.2461 210.66 14.1133 210.66C13.9583 210.66 13.8366 210.693 13.748 210.76C13.748 210.715 13.748 210.671 13.748 210.627C13.7702 210.605 13.7812 210.572 13.7812 210.527C13.7812 210.262 13.748 209.985 13.6816 209.697C13.6152 209.432 13.582 209.166 13.582 208.9C13.582 208.59 13.6374 208.336 13.748 208.137H14.1465C14.3678 208.137 14.5781 208.126 14.7773 208.104C14.9987 208.059 15.2311 208.037 15.4746 208.037C15.7181 208.037 15.9395 208.104 16.1387 208.236C17.3561 208.192 18.5072 207.971 19.5918 207.572C20.6986 207.152 21.8164 206.742 22.9453 206.344C23.1224 206.1 23.222 205.835 23.2441 205.547C23.2884 205.237 23.377 204.949 23.5098 204.684C22.9342 204.197 22.3477 203.82 21.75 203.555C21.1745 203.267 20.4993 203.167 19.7246 203.256C19.2598 202.968 18.7617 202.802 18.2305 202.758C17.7214 202.714 17.2012 202.647 16.6699 202.559C16.5371 202.536 16.3932 202.514 16.2383 202.492C16.1055 202.448 15.9616 202.426 15.8066 202.426C15.696 202.426 15.5853 202.459 15.4746 202.525C15.3861 202.57 15.3639 202.647 15.4082 202.758C15.2975 202.581 15.1426 202.481 14.9434 202.459C14.7663 202.415 14.6113 202.326 14.4785 202.193C13.7702 202.149 13.1504 202.027 12.6191 201.828C12.0879 201.607 11.5013 201.363 10.8594 201.098C10.6823 201.031 10.5052 200.987 10.3281 200.965C10.1732 200.921 10.0182 200.854 9.86328 200.766C9.46484 200.566 9.14388 200.301 8.90039 199.969C8.6569 199.637 8.46875 199.271 8.33594 198.873C8.18099 198.452 8.07031 198.021 8.00391 197.578C7.9375 197.135 7.87109 196.726 7.80469 196.35C8.00391 195.995 8.19206 195.63 8.36914 195.254C8.52409 194.878 8.6569 194.479 8.76758 194.059C8.90039 193.992 9.0332 193.937 9.16602 193.893C9.29883 193.848 9.44271 193.793 9.59766 193.727C9.57552 193.682 9.56445 193.627 9.56445 193.561C9.56445 193.45 9.59766 193.339 9.66406 193.229C9.7526 193.118 9.77474 193.007 9.73047 192.896C10.2174 192.454 10.6823 192 11.125 191.535C11.5898 191.048 11.9883 190.517 12.3203 189.941C12.6523 189.831 12.918 189.665 13.1172 189.443C13.3164 189.222 13.5156 189.001 13.7148 188.779C13.9141 188.536 14.1354 188.326 14.3789 188.148C14.6224 187.949 14.9323 187.827 15.3086 187.783C15.3971 187.628 15.5189 187.507 15.6738 187.418C15.8288 187.307 15.9837 187.208 16.1387 187.119C16.2936 187.031 16.4375 186.931 16.5703 186.82C16.7031 186.71 16.8027 186.555 16.8691 186.355C17.2233 186.355 17.5443 186.289 17.832 186.156C18.1419 186.023 18.4408 185.88 18.7285 185.725C19.0163 185.57 19.304 185.426 19.5918 185.293C19.9017 185.16 20.2337 185.094 20.5879 185.094C20.6764 185.094 20.765 185.105 20.8535 185.127C20.9421 185.127 21.0417 185.138 21.1523 185.16C21.3073 185.315 21.4069 185.503 21.4512 185.725C21.5176 185.924 21.5618 186.145 21.584 186.389C21.6061 186.632 21.6172 186.876 21.6172 187.119C21.6393 187.363 21.6836 187.584 21.75 187.783C21.5508 188.16 21.3294 188.536 21.0859 188.912C20.8646 189.288 20.5658 189.576 20.1895 189.775H20.123C19.9681 189.798 19.8242 189.764 19.6914 189.676C19.5586 189.587 19.4036 189.543 19.2266 189.543C19.1159 189.543 19.0273 189.576 18.9609 189.643L18.7949 189.809C18.7507 189.853 18.6842 189.897 18.5957 189.941C18.5293 189.986 18.4297 189.986 18.2969 189.941C17.987 190.052 17.8652 190.24 17.9316 190.506C17.5111 190.55 17.1569 190.683 16.8691 190.904C16.5814 191.104 16.3158 191.336 16.0723 191.602C15.8288 191.845 15.5853 192.077 15.3418 192.299C15.0983 192.498 14.8105 192.609 14.4785 192.631C14.1022 193.295 13.6374 193.882 13.084 194.391C12.5527 194.9 12.11 195.475 11.7559 196.117C11.8223 196.294 11.8665 196.482 11.8887 196.682C11.9108 196.881 11.944 197.091 11.9883 197.312C12.1875 197.578 12.4199 197.811 12.6855 198.01C12.9733 198.209 13.25 198.408 13.5156 198.607H13.6152C14.0579 198.607 14.4674 198.696 14.8438 198.873C15.2201 199.028 15.6185 199.105 16.0391 199.105C16.2604 199.105 16.4486 199.061 16.6035 198.973C17.179 199.105 17.7435 199.216 18.2969 199.305C18.8724 199.393 19.4479 199.46 20.0234 199.504C20.3112 199.548 20.599 199.57 20.8867 199.57C21.1966 199.57 21.4844 199.604 21.75 199.67C21.9935 199.736 22.237 199.825 22.4805 199.936C22.724 200.024 22.9674 200.124 23.2109 200.234C23.7201 200.456 24.196 200.699 24.6387 200.965C25.1035 201.23 25.513 201.551 25.8672 201.928C26.2214 202.282 26.498 202.702 26.6973 203.189C26.8965 203.654 26.9961 204.197 26.9961 204.816ZM47.0508 200.467C47.0508 200.71 46.9622 200.898 46.7852 201.031C46.6081 201.142 46.5195 201.297 46.5195 201.496C46.5195 201.585 46.5638 201.695 46.6523 201.828C46.3424 201.828 46.1322 201.928 46.0215 202.127C45.9108 202.326 45.8001 202.548 45.6895 202.791H45.2578C45.1471 202.791 45.0586 202.813 44.9922 202.857C44.9258 202.902 44.8594 202.968 44.793 203.057C44.7487 203.123 44.6823 203.234 44.5938 203.389C44.1732 203.477 43.7637 203.621 43.3652 203.82C42.9889 203.997 42.6126 204.197 42.2363 204.418C41.8822 204.617 41.5169 204.827 41.1406 205.049C40.7643 205.248 40.377 205.414 39.9785 205.547C39.7793 205.879 39.4915 206.145 39.1152 206.344H39.0156C38.9049 206.366 38.8053 206.355 38.7168 206.311C38.6504 206.244 38.5618 206.211 38.4512 206.211C38.3848 206.211 38.3405 206.222 38.3184 206.244C37.6543 206.687 36.9128 206.908 36.0938 206.908C35.8724 206.908 35.6621 206.897 35.4629 206.875C35.2637 206.831 35.0534 206.809 34.832 206.809C34.7656 206.809 34.7214 206.831 34.6992 206.875L34.6328 207.008C34.6107 207.052 34.5775 207.096 34.5332 207.141C34.5111 207.185 34.4336 207.207 34.3008 207.207C34.0573 207.207 33.8138 207.174 33.5703 207.107C33.3268 207.041 33.0723 207.03 32.8066 207.074C32.2975 206.786 31.8991 206.51 31.6113 206.244C31.3236 205.979 31.0579 205.58 30.8145 205.049C30.7038 204.805 30.5488 204.573 30.3496 204.352C30.1725 204.13 30.0397 203.887 29.9512 203.621C29.929 203.533 29.8958 203.378 29.8516 203.156C29.8073 202.913 29.763 202.658 29.7188 202.393C29.6745 202.127 29.6302 201.872 29.5859 201.629C29.5638 201.385 29.5527 201.219 29.5527 201.131C29.5527 200.865 29.5638 200.611 29.5859 200.367C29.6302 200.102 29.6745 199.836 29.7188 199.57C29.8516 198.729 29.9401 197.888 29.9844 197.047C30.0508 196.184 30.2389 195.354 30.5488 194.557C30.5046 194.313 30.4824 194.081 30.4824 193.859V193.129C30.4824 192.708 30.4271 192.354 30.3164 192.066C30.4935 191.779 30.582 191.458 30.582 191.104C30.582 190.705 30.416 190.473 30.084 190.406V190.307C30.084 189.842 29.929 189.477 29.6191 189.211C29.6191 188.436 29.8073 187.861 30.1836 187.484C30.582 187.086 31.1022 186.743 31.7441 186.455C31.8327 186.322 31.8659 186.212 31.8438 186.123C31.9987 186.167 32.1426 186.212 32.2754 186.256C32.4082 186.3 32.541 186.322 32.6738 186.322C32.8952 186.322 33.0944 186.289 33.2715 186.223C33.3379 186.488 33.5039 186.654 33.7695 186.721C34.0573 186.765 34.2897 186.831 34.4668 186.92V187.352C34.4668 188.038 34.6328 188.691 34.9648 189.311C34.8763 189.488 34.821 189.676 34.7988 189.875C34.7767 190.074 34.7656 190.262 34.7656 190.439C34.7656 190.705 34.7767 190.971 34.7988 191.236C34.821 191.502 34.832 191.757 34.832 192C34.832 192.266 34.7988 192.531 34.7324 192.797C34.6882 193.062 34.5664 193.295 34.3672 193.494C34.3451 193.782 34.3229 194.114 34.3008 194.49C34.3008 194.844 34.2786 195.21 34.2344 195.586C34.2122 195.962 34.1569 196.327 34.0684 196.682C33.9798 197.036 33.847 197.324 33.6699 197.545C33.6478 197.877 33.6257 198.22 33.6035 198.574C33.6035 198.906 33.6035 199.227 33.6035 199.537C33.6035 200.024 33.6257 200.6 33.6699 201.264C33.7363 201.928 33.8913 202.481 34.1348 202.924C34.2454 203.101 34.4557 203.234 34.7656 203.322C35.0977 203.411 35.3633 203.455 35.5625 203.455C35.806 203.455 36.0495 203.422 36.293 203.355C36.5586 203.267 36.7467 203.123 36.8574 202.924C36.9902 202.946 37.0788 203.012 37.123 203.123C37.1673 203.234 37.2448 203.322 37.3555 203.389C38.6172 202.857 39.8789 202.348 41.1406 201.861C42.4023 201.374 43.6419 200.81 44.8594 200.168C45.0365 200.257 45.2246 200.301 45.4238 200.301C45.6452 200.301 45.8665 200.279 46.0879 200.234C46.3092 200.19 46.5306 200.168 46.752 200.168H46.9844C47.0286 200.301 47.0508 200.4 47.0508 200.467ZM71.5215 206.576C71.4551 206.886 71.3112 207.141 71.0898 207.34C70.8906 207.517 70.6471 207.661 70.3594 207.771C70.0716 207.882 69.7728 207.96 69.4629 208.004C69.1751 208.026 68.9095 208.037 68.666 208.037C68.5553 208.037 68.4447 208.037 68.334 208.037C68.2454 208.015 68.1458 208.004 68.0352 208.004C67.9245 208.004 67.8691 208.059 67.8691 208.17C67.8691 208.281 67.8138 208.358 67.7031 208.402C67.5924 208.358 67.4818 208.325 67.3711 208.303C67.2604 208.281 67.1497 208.27 67.0391 208.27C66.8841 208.27 66.7292 208.281 66.5742 208.303C66.4414 208.325 66.3086 208.336 66.1758 208.336C65.9987 208.336 65.8659 208.314 65.7773 208.27C65.7109 208.225 65.6445 208.181 65.5781 208.137C65.5339 208.07 65.4785 208.004 65.4121 207.938C65.3678 207.871 65.2904 207.816 65.1797 207.771C65.0247 207.705 64.8919 207.694 64.7812 207.738C64.6927 207.783 64.5488 207.716 64.3496 207.539C64.084 207.318 63.8516 207.052 63.6523 206.742C63.4753 206.41 63.2982 206.067 63.1211 205.713C62.944 205.359 62.7559 205.005 62.5566 204.65C62.3574 204.296 62.125 203.986 61.8594 203.721H61.5938C61.1953 203.721 60.9186 203.887 60.7637 204.219C60.653 204.152 60.5423 204.075 60.4316 203.986C60.321 203.876 60.1992 203.787 60.0664 203.721C59.5573 203.876 59.026 204.008 58.4727 204.119C57.9193 204.23 57.3659 204.285 56.8125 204.285H56.3477C56.2148 204.285 56.071 204.263 55.916 204.219C55.6947 204.307 55.4954 204.418 55.3184 204.551C55.1413 204.661 54.9421 204.717 54.7207 204.717C54.5879 204.717 54.4329 204.673 54.2559 204.584C54.123 204.584 54.0566 204.639 54.0566 204.75C54.0788 204.861 54.0124 204.916 53.8574 204.916H53.5586C53.2487 204.916 52.9388 204.927 52.6289 204.949C52.3411 204.971 52.0423 204.982 51.7324 204.982C51.3118 204.982 50.8802 204.927 50.4375 204.816C50.3268 204.883 50.2051 204.916 50.0723 204.916C49.9837 204.96 49.9173 205.038 49.873 205.148C49.8288 205.237 49.7845 205.326 49.7402 205.414C49.696 205.48 49.6296 205.547 49.541 205.613C49.4746 205.658 49.375 205.669 49.2422 205.646C49.1979 205.912 49.0872 206.122 48.9102 206.277C48.7331 206.432 48.6445 206.665 48.6445 206.975C48.401 207.107 48.2018 207.273 48.0469 207.473C47.8919 207.672 47.737 207.882 47.582 208.104C47.4271 208.325 47.2611 208.535 47.084 208.734C46.929 208.934 46.7298 209.089 46.4863 209.199C46.3757 209.332 46.3424 209.542 46.3867 209.83C46.1432 210.029 45.8444 210.206 45.4902 210.361C45.1361 210.516 44.804 210.594 44.4941 210.594C43.8522 210.594 43.4095 210.251 43.166 209.564C43.166 209.343 43.1882 209.111 43.2324 208.867C43.2546 208.602 43.2988 208.358 43.3652 208.137C43.4316 207.893 43.5312 207.683 43.6641 207.506C43.7969 207.307 43.985 207.163 44.2285 207.074C44.2285 206.875 44.1621 206.742 44.0293 206.676C43.8965 206.587 43.8411 206.443 43.8633 206.244C44.4609 205.956 44.9811 205.58 45.4238 205.115C45.8665 204.65 46.265 204.163 46.6191 203.654C46.9954 203.123 47.3717 202.592 47.748 202.061C48.1243 201.529 48.5449 201.053 49.0098 200.633V199.936C49.6738 199.227 50.1055 198.43 50.3047 197.545C50.5482 197.501 50.7031 197.39 50.7695 197.213C50.8581 197.036 50.9023 196.826 50.9023 196.582C51.013 196.582 51.0794 196.538 51.1016 196.449C51.1458 196.339 51.2454 196.305 51.4004 196.35C51.5996 195.818 51.821 195.331 52.0645 194.889C52.3079 194.446 52.5514 194.003 52.7949 193.561C53.0384 193.096 53.2487 192.62 53.4258 192.133C53.625 191.646 53.7689 191.104 53.8574 190.506C54.1673 190.484 54.3333 190.34 54.3555 190.074C54.3997 189.786 54.444 189.532 54.4883 189.311C54.8203 189.001 55.0638 188.635 55.2188 188.215C55.3958 187.794 55.5508 187.363 55.6836 186.92C55.8164 186.455 55.9603 186.001 56.1152 185.559C56.2923 185.094 56.5358 184.684 56.8457 184.33V184.23C56.8457 184.12 56.8014 184.053 56.7129 184.031C56.6243 183.987 56.5801 183.91 56.5801 183.799C56.6022 183.777 56.6133 183.755 56.6133 183.732C56.8789 183.622 57.0781 183.445 57.2109 183.201C57.3438 182.936 57.543 182.747 57.8086 182.637C58.2734 183.013 58.6829 183.245 59.0371 183.334C59.3913 183.4 59.8561 183.456 60.4316 183.5C60.7194 183.81 60.8743 184.186 60.8965 184.629C60.9408 185.049 61.0182 185.47 61.1289 185.891C61.306 186.599 61.4941 187.296 61.6934 187.982C61.9147 188.646 62.0807 189.333 62.1914 190.041C62.2578 190.462 62.3796 190.86 62.5566 191.236C62.7337 191.613 62.8555 192 62.9219 192.398C62.9661 192.708 62.9661 193.062 62.9219 193.461C62.8776 193.837 62.9219 194.169 63.0547 194.457L63.2871 194.988C63.3978 195.232 63.4863 195.486 63.5527 195.752C63.6413 196.018 63.7188 196.283 63.7852 196.549C63.9622 197.213 64.1172 197.932 64.25 198.707C64.4049 199.46 64.6374 200.146 64.9473 200.766C65.0579 200.987 65.224 201.142 65.4453 201.23C65.6888 201.319 65.9544 201.385 66.2422 201.43C66.5299 201.452 66.8066 201.463 67.0723 201.463C67.36 201.441 67.6035 201.43 67.8027 201.43H68.1348C68.2676 201.43 68.4004 201.452 68.5332 201.496C68.6217 201.673 68.666 201.828 68.666 201.961C68.666 202.227 68.5775 202.437 68.4004 202.592C68.2233 202.747 68.1348 202.924 68.1348 203.123C68.1348 203.234 68.179 203.355 68.2676 203.488C68.179 203.466 68.0462 203.455 67.8691 203.455C67.36 203.455 66.862 203.544 66.375 203.721C66.5521 204.097 66.7845 204.418 67.0723 204.684C67.3822 204.927 67.7031 205.16 68.0352 205.381C68.2565 205.204 68.4889 205.115 68.7324 205.115C68.998 205.115 69.2415 205.182 69.4629 205.314C69.7064 205.425 69.9609 205.48 70.2266 205.48C70.4258 205.48 70.5697 205.447 70.6582 205.381C70.8353 205.58 70.9792 205.79 71.0898 206.012C71.2005 206.211 71.3444 206.399 71.5215 206.576ZM61.1289 201.264C61.0846 200.887 61.0072 200.622 60.8965 200.467C60.8079 200.29 60.7305 200.079 60.6641 199.836C60.5755 199.526 60.5091 199.194 60.4648 198.84C60.4427 198.486 60.3984 198.143 60.332 197.811C60.1771 197.058 60 196.305 59.8008 195.553C59.6237 194.8 59.3913 194.07 59.1035 193.361C59.1921 193.229 59.2363 193.107 59.2363 192.996V192.896C59.0371 192.675 58.8932 192.41 58.8047 192.1C58.7161 191.768 58.6276 191.447 58.5391 191.137C58.4727 190.805 58.373 190.506 58.2402 190.24C58.1296 189.952 57.9414 189.72 57.6758 189.543C57.6094 189.676 57.5762 189.831 57.5762 190.008C57.5762 190.163 57.5872 190.307 57.6094 190.439C57.6536 190.572 57.6758 190.716 57.6758 190.871C57.4544 190.982 57.2884 191.159 57.1777 191.402C57.0892 191.624 56.9342 191.801 56.7129 191.934C56.5358 192.642 56.2812 193.317 55.9492 193.959C55.6172 194.579 55.263 195.199 54.8867 195.818C54.5326 196.438 54.1895 197.069 53.8574 197.711C53.5254 198.331 53.2598 198.984 53.0605 199.67C52.7728 199.869 52.5736 200.124 52.4629 200.434C52.3743 200.743 52.3301 201.053 52.3301 201.363C52.5293 201.474 52.7507 201.54 52.9941 201.562C53.2598 201.562 53.5143 201.562 53.7578 201.562C54.0013 201.562 54.2337 201.585 54.4551 201.629C54.6764 201.673 54.8757 201.784 55.0527 201.961C55.3405 201.872 55.6504 201.817 55.9824 201.795C56.3366 201.751 56.6243 201.651 56.8457 201.496C57.2884 201.651 57.7643 201.729 58.2734 201.729C58.5391 201.729 58.7936 201.706 59.0371 201.662C59.3027 201.618 59.5573 201.562 59.8008 201.496C60 201.54 60.1549 201.618 60.2656 201.729C60.3763 201.817 60.5423 201.85 60.7637 201.828C60.8743 201.74 60.9408 201.651 60.9629 201.562C60.985 201.452 61.0404 201.352 61.1289 201.264ZM88.8203 186.156C88.8203 186.355 88.7318 186.521 88.5547 186.654C88.3997 186.787 88.3223 186.887 88.3223 186.953C88.3223 187.086 88.3444 187.186 88.3887 187.252C88.4329 187.296 88.4551 187.352 88.4551 187.418V187.584C88.2337 187.805 88.0677 188.049 87.957 188.314C87.8464 188.558 87.7578 188.824 87.6914 189.111C87.625 189.377 87.5586 189.654 87.4922 189.941C87.4479 190.229 87.3815 190.506 87.293 190.771C87.1823 191.037 87.0384 191.27 86.8613 191.469C86.6842 191.646 86.5404 191.856 86.4297 192.1C86.2526 192.498 86.1198 192.908 86.0312 193.328C85.9427 193.749 85.7546 194.136 85.4668 194.49V194.656C85.4447 194.811 85.4889 194.944 85.5996 195.055C85.179 195.608 84.847 196.272 84.6035 197.047C84.36 197.799 84.1608 198.596 84.0059 199.438C83.8509 200.257 83.7181 201.087 83.6074 201.928C83.4967 202.747 83.3639 203.488 83.209 204.152C83.3197 204.639 83.4857 205.104 83.707 205.547C83.9505 205.967 84.1829 206.41 84.4043 206.875C84.847 206.986 85.2676 207.141 85.666 207.34C86.0866 207.539 86.3854 207.86 86.5625 208.303C86.5182 208.745 86.3743 209.089 86.1309 209.332C85.8874 209.576 85.5885 209.83 85.2344 210.096C84.9909 210.007 84.7917 209.93 84.6367 209.863C84.4818 209.819 84.2493 209.819 83.9395 209.863C83.5189 209.531 83.1204 209.266 82.7441 209.066C82.39 208.867 82.069 208.524 81.7812 208.037C81.737 207.971 81.6706 207.938 81.582 207.938H81.2832C81.1725 207.672 81.0397 207.395 80.8848 207.107C80.7298 206.798 80.5749 206.488 80.4199 206.178C80.265 205.846 80.1322 205.525 80.0215 205.215C79.9108 204.883 79.8555 204.584 79.8555 204.318C79.8555 203.189 79.9551 202.072 80.1543 200.965C80.3757 199.836 80.4863 198.696 80.4863 197.545V197.213C80.0436 197.324 79.6009 197.479 79.1582 197.678C78.7376 197.877 78.306 198.032 77.8633 198.143C77.7083 198.187 77.6198 198.264 77.5977 198.375C77.5755 198.486 77.5091 198.574 77.3984 198.641C77.1771 198.663 76.9668 198.685 76.7676 198.707C76.5684 198.707 76.3802 198.707 76.2031 198.707C75.8268 198.707 75.4284 198.696 75.0078 198.674C74.6094 198.63 74.2109 198.552 73.8125 198.441C73.4141 198.331 73.0378 198.176 72.6836 197.977C72.3516 197.777 72.0527 197.523 71.7871 197.213C71.7428 197.235 71.6875 197.257 71.6211 197.279C71.5547 197.301 71.4883 197.312 71.4219 197.312C71.3555 197.312 71.2891 197.301 71.2227 197.279C71.1562 197.257 71.1009 197.235 71.0566 197.213C70.8796 196.969 70.7357 196.704 70.625 196.416L70.293 195.553C70.1823 195.265 70.0605 194.988 69.9277 194.723C69.7949 194.457 69.6178 194.214 69.3965 193.992C69.3301 193.594 69.2969 193.206 69.2969 192.83C69.2969 192.432 69.3301 192.044 69.3965 191.668C69.4408 191.292 69.5182 190.915 69.6289 190.539C69.5404 190.273 69.485 189.997 69.4629 189.709C69.4186 189.421 69.3965 189.133 69.3965 188.846C69.3965 188.514 69.4297 188.171 69.4961 187.816C69.5625 187.462 69.6732 187.141 69.8281 186.854C69.9831 186.544 70.2044 186.289 70.4922 186.09C70.7578 185.891 71.0898 185.791 71.4883 185.791C71.931 185.791 72.3405 185.913 72.7168 186.156C73.0931 186.378 73.4583 186.61 73.8125 186.854C73.8568 187.119 73.89 187.385 73.9121 187.65C73.9342 187.894 73.9453 188.16 73.9453 188.447C73.9453 188.979 73.9121 189.521 73.8457 190.074C73.8014 190.605 73.7793 191.148 73.7793 191.701C73.7793 192.277 73.8457 192.819 73.9785 193.328C74.1335 193.815 74.3991 194.28 74.7754 194.723H74.9082C75.0853 194.701 75.2402 194.734 75.373 194.822C75.5059 194.911 75.6608 194.955 75.8379 194.955C75.9928 194.955 76.1146 194.9 76.2031 194.789C76.2917 194.656 76.4023 194.59 76.5352 194.59C76.668 194.59 76.7676 194.612 76.834 194.656C76.9004 194.701 76.9557 194.723 77 194.723C77.2435 194.723 77.5202 194.634 77.8301 194.457C78.14 194.28 78.3392 194.081 78.4277 193.859C78.5163 193.926 78.627 193.959 78.7598 193.959C78.9368 193.959 79.1029 193.904 79.2578 193.793C79.4128 193.682 79.612 193.627 79.8555 193.627C79.9883 193.627 80.0326 193.549 79.9883 193.395C79.9661 193.217 80.0104 193.107 80.1211 193.062C80.3867 192.952 80.6745 192.797 80.9844 192.598C81.3164 192.376 81.582 192.243 81.7812 192.199C81.8919 191.911 82.0247 191.646 82.1797 191.402C82.3568 191.137 82.5339 190.893 82.7109 190.672C82.7773 190.163 82.9102 189.676 83.1094 189.211C83.3086 188.746 83.5189 188.281 83.7402 187.816C83.9616 187.352 84.1719 186.887 84.3711 186.422C84.5703 185.957 84.7031 185.47 84.7695 184.961C85.013 184.717 85.2012 184.452 85.334 184.164C85.4889 183.876 85.6217 183.589 85.7324 183.301C85.9538 183.234 86.2305 183.201 86.5625 183.201C86.8945 183.179 87.1823 183.168 87.4258 183.168H87.9902C88.0566 183.301 88.1452 183.423 88.2559 183.533L88.5879 183.865C88.3887 184.175 88.2891 184.485 88.2891 184.795C88.2891 185.038 88.3444 185.282 88.4551 185.525C88.5658 185.747 88.6875 185.957 88.8203 186.156Z" fill="#FAFF00"/>
<path d="M42.4248 29.2939C42.3434 29.1312 42.2539 28.9766 42.1562 28.8301C42.0749 28.6999 41.9935 28.5697 41.9121 28.4395C41.847 28.3092 41.7982 28.179 41.7656 28.0488C41.7331 27.9186 41.7331 27.7803 41.7656 27.6338C41.7656 27.5361 41.8226 27.4548 41.9365 27.3896C42.0667 27.3245 42.2051 27.2757 42.3516 27.2432C42.5143 27.1943 42.6689 27.1618 42.8154 27.1455C42.9782 27.1292 43.1003 27.1292 43.1816 27.1455L44.5244 29.4893L50.7744 29.6357C50.986 29.6683 51.0674 29.7985 51.0186 30.0264C50.986 30.2542 50.9372 30.4902 50.8721 30.7344C50.8721 30.7669 50.8558 30.8158 50.8232 30.8809C50.807 30.9622 50.7907 31.0192 50.7744 31.0518C50.335 31.0192 49.8548 30.9785 49.334 30.9297C48.8294 30.8971 48.3167 30.8646 47.7959 30.832C47.2913 30.7995 46.7949 30.7751 46.3066 30.7588C45.8184 30.7588 45.3789 30.7832 44.9883 30.832L46.0137 34.4941C46.0299 34.5592 45.9811 34.6081 45.8672 34.6406C45.7695 34.6895 45.6475 34.7301 45.501 34.7627C45.3545 34.8115 45.208 34.8441 45.0615 34.8604C44.915 34.8766 44.8418 34.8848 44.8418 34.8848L43.084 30.7344C42.9375 30.7344 42.5876 30.7425 42.0342 30.7588C41.4808 30.7913 40.8216 30.8239 40.0566 30.8564C39.3079 30.889 38.4941 30.9215 37.6152 30.9541C36.7526 30.9867 35.9469 31.0192 35.1982 31.0518C34.4495 31.0843 33.7904 31.1087 33.2207 31.125C32.6673 31.1413 32.3174 31.1494 32.1709 31.1494C31.6826 31.1169 31.4385 30.9704 31.4385 30.71C31.4385 30.4658 31.5605 30.1973 31.8047 29.9043L42.4248 29.2939ZM42.6689 44.1133C42.8968 43.5111 42.8073 42.9333 42.4004 42.3799C41.9935 41.8265 41.4157 41.2975 40.667 40.793C39.9346 40.2884 39.0964 39.8083 38.1523 39.3525C37.2083 38.8968 36.3132 38.4736 35.4668 38.083C34.6204 37.6924 33.8962 37.3343 33.2939 37.0088C32.6917 36.6995 32.3581 36.4147 32.293 36.1543C32.293 35.959 32.3255 35.8044 32.3906 35.6904C32.472 35.5928 32.6592 35.5439 32.9521 35.5439L50.1152 35.5439C50.2617 35.5439 50.3512 35.6009 50.3838 35.7148C50.4163 35.8451 50.4245 35.9834 50.4082 36.1299C50.3919 36.2764 50.3512 36.4147 50.2861 36.5449C50.2373 36.6751 50.1803 36.7565 50.1152 36.7891L36.3701 37.1064C36.6631 37.2855 37.07 37.4482 37.5908 37.5947C38.1279 37.7575 38.6976 37.9447 39.2998 38.1562C39.9183 38.3678 40.5286 38.612 41.1309 38.8887C41.7493 39.1816 42.3027 39.5397 42.791 39.9629C43.2793 40.3861 43.6536 40.8988 43.9141 41.501C44.1908 42.1195 44.2884 42.8438 44.207 43.6738C44.207 44.2272 44.028 44.6748 43.6699 45.0166C43.3281 45.3584 42.8724 45.5374 42.3027 45.5537L32.5615 45.7979C32.4964 45.7979 32.3988 45.7816 32.2686 45.749C32.1546 45.7327 32.057 45.6676 31.9756 45.5537C31.8779 45.4561 31.821 45.3096 31.8047 45.1143C31.7721 44.9352 31.8128 44.6992 31.9268 44.4063L42.6689 44.1133ZM37.2734 47.7266C37.2572 47.6452 37.2327 47.5231 37.2002 47.3604C37.1676 47.1976 37.1595 47.0267 37.1758 46.8477C37.1921 46.6686 37.2409 46.514 37.3223 46.3838C37.4036 46.2373 37.542 46.1641 37.7373 46.1641C37.8512 46.1641 37.9326 46.1885 37.9814 46.2373C38.0303 46.2861 38.1035 46.3675 38.2012 46.4814C38.4941 46.8395 38.8685 47.1406 39.3242 47.3848C39.7962 47.6452 40.2926 47.8812 40.8135 48.0928C41.3506 48.3044 41.8796 48.5241 42.4004 48.752C42.9375 48.9961 43.4176 49.2728 43.8408 49.582C44.264 49.8913 44.6058 50.2738 44.8662 50.7295C45.1266 51.1852 45.2487 51.7467 45.2324 52.4141C45.2324 52.6908 45.1673 53 45.0371 53.3418C44.9069 53.6836 44.7279 54.001 44.5 54.2939C44.2884 54.5869 44.028 54.8311 43.7188 55.0264C43.4095 55.2217 43.0677 55.3193 42.6934 55.3193C42.5632 55.4007 42.376 55.3193 42.1318 55.0752C41.8877 54.8473 41.6191 54.5299 41.3262 54.123C41.0495 53.7161 40.7565 53.2523 40.4473 52.7314C40.1543 52.2269 39.8776 51.7386 39.6172 51.2666C39.3568 50.7946 39.1289 50.3796 38.9336 50.0215C38.7383 49.6634 38.5918 49.4274 38.4941 49.3135C38.3314 49.2321 38.1442 49.167 37.9326 49.1182C37.721 49.0693 37.5176 49.0286 37.3223 48.9961C37.1432 48.9798 36.9723 48.9635 36.8096 48.9473C36.6631 48.9473 36.5492 48.9473 36.4678 48.9473C36.1585 48.9473 35.8167 48.931 35.4424 48.8984C35.068 48.8822 34.71 48.8984 34.3682 48.9473C34.0426 49.0124 33.766 49.1507 33.5381 49.3623C33.3265 49.5739 33.2207 49.932 33.2207 50.4365C33.2207 50.9736 33.3509 51.4782 33.6113 51.9502C33.888 52.4222 34.2217 52.8617 34.6123 53.2686C35.0029 53.6755 35.4261 54.0417 35.8818 54.3672C36.3376 54.709 36.7607 55.0101 37.1514 55.2705C37.5583 55.5472 37.8919 55.7913 38.1523 56.0029C38.4128 56.2145 38.543 56.3936 38.543 56.54C38.543 56.7028 38.5104 56.8737 38.4453 57.0527C38.3965 57.248 38.2663 57.3457 38.0547 57.3457C37.7617 57.3457 37.4118 57.2236 37.0049 56.9795C36.598 56.7516 36.1667 56.4424 35.7109 56.0518C35.2552 55.6774 34.7995 55.238 34.3438 54.7334C33.9043 54.2451 33.5055 53.7487 33.1475 53.2441C32.8057 52.7396 32.5208 52.2432 32.293 51.7549C32.0814 51.2666 31.9756 50.8353 31.9756 50.4609C31.9756 49.7285 32.1546 49.1751 32.5127 48.8008C32.8708 48.4264 33.3184 48.1579 33.8555 47.9951C34.3926 47.8486 34.9622 47.7673 35.5645 47.751C36.1829 47.751 36.7526 47.7428 37.2734 47.7266ZM43.8652 52.2188C43.8652 51.9421 43.7269 51.6491 43.4502 51.3398C43.1898 51.0306 42.8643 50.7376 42.4736 50.4609C42.0993 50.2005 41.7087 49.9808 41.3018 49.8018C40.9111 49.639 40.5856 49.5576 40.3252 49.5576C40.3252 49.8018 40.4147 50.1517 40.5938 50.6074C40.7891 51.0794 41.0251 51.5433 41.3018 51.999C41.5785 52.4548 41.8714 52.8535 42.1807 53.1953C42.4899 53.5371 42.7829 53.708 43.0596 53.708C43.2061 53.708 43.3281 53.651 43.4258 53.5371C43.5234 53.4232 43.6048 53.2848 43.6699 53.1221C43.735 52.9756 43.7839 52.821 43.8164 52.6582C43.849 52.4954 43.8652 52.349 43.8652 52.2188ZM36.4678 75.168C36.0934 75.0052 35.6621 74.7936 35.1738 74.5332C34.6855 74.2891 34.2217 73.9961 33.7822 73.6543C33.3428 73.3288 32.9684 72.9463 32.6592 72.5068C32.3499 72.0674 32.1953 71.5791 32.1953 71.042C32.1953 70.7979 32.2197 70.6025 32.2686 70.4561C32.3337 70.3258 32.4232 70.2038 32.5371 70.0898C32.651 69.9922 32.7894 69.8945 32.9521 69.7969C33.1149 69.7155 33.2939 69.6097 33.4893 69.4795C34.2868 69.4307 35.1413 69.3981 36.0527 69.3818C36.9805 69.3818 37.9001 69.4307 38.8115 69.5283C39.7393 69.626 40.61 69.7887 41.4238 70.0166C42.2376 70.2607 42.9294 70.5944 43.499 71.0176C44.0687 71.457 44.4756 72.0023 44.7197 72.6533C44.9639 73.3044 44.9801 74.0938 44.7686 75.0215C45.2243 75.0703 45.8346 75.0785 46.5996 75.0459C47.3646 75.0133 48.1702 74.9645 49.0166 74.8994C49.863 74.8343 50.6768 74.7692 51.458 74.7041C52.2555 74.639 52.9066 74.5983 53.4111 74.582C53.5576 74.582 53.6634 74.6471 53.7285 74.7773C53.8099 74.9238 53.8587 75.0785 53.875 75.2412C53.8913 75.404 53.8913 75.5586 53.875 75.7051C53.8587 75.8678 53.8343 75.9736 53.8018 76.0225C51.7998 75.9899 49.8304 75.9818 47.8936 75.998C45.973 76.0143 44.0524 76.0306 42.1318 76.0469C40.2275 76.0794 38.3314 76.112 36.4434 76.1445C34.5553 76.1771 32.6673 76.1934 30.7793 76.1934C30.6003 76.1934 30.4131 76.1771 30.2178 76.1445C30.0062 76.1283 29.9004 75.9899 29.9004 75.7295C29.9004 75.6318 29.9329 75.5342 29.998 75.4365C30.0469 75.3389 30.1283 75.2738 30.2422 75.2412L36.4678 75.168ZM43.5479 74.1182C43.5804 73.6136 43.377 73.1416 42.9375 72.7021C42.5143 72.279 41.9609 71.9046 41.2773 71.5791C40.5938 71.2699 39.8369 71.0176 39.0068 70.8223C38.193 70.627 37.4036 70.5049 36.6387 70.4561C35.89 70.4235 35.2227 70.4723 34.6367 70.6025C34.0508 70.749 33.652 71.0013 33.4404 71.3594C33.4404 71.7174 33.5788 72.0511 33.8555 72.3604C34.1484 72.6696 34.5146 72.9544 34.9541 73.2148C35.3936 73.4753 35.8818 73.7031 36.4189 73.8984C36.9723 74.0938 37.5013 74.2565 38.0059 74.3867C38.5104 74.5332 38.9661 74.639 39.373 74.7041C39.7962 74.7855 40.1136 74.8262 40.3252 74.8262C40.488 74.8262 40.7484 74.8343 41.1064 74.8506C41.4645 74.8669 41.8226 74.8587 42.1807 74.8262C42.5387 74.7936 42.8561 74.7204 43.1328 74.6064C43.4095 74.5088 43.5479 74.346 43.5479 74.1182ZM34.832 83.9326C34.6367 83.8675 34.3682 83.7048 34.0264 83.4443C33.7008 83.2002 33.3672 82.9072 33.0254 82.5654C32.6999 82.2236 32.4069 81.8656 32.1465 81.4912C31.9023 81.1331 31.7803 80.8158 31.7803 80.5391C31.7803 80.0182 32.0244 79.5869 32.5127 79.2451C33.001 78.9196 33.6276 78.6673 34.3926 78.4883C35.1576 78.3092 36.0039 78.1872 36.9316 78.1221C37.8757 78.057 38.7952 78.0163 39.6904 78C40.5856 77.9837 41.3994 77.9756 42.1318 77.9756C42.8643 77.9756 43.4176 77.9512 43.792 77.9023C43.9548 77.9674 44.0524 78.0488 44.085 78.1465C44.1175 78.2604 44.1338 78.3906 44.1338 78.5371C44.1338 78.6673 44.1175 78.7812 44.085 78.8789C44.0524 78.9928 43.9548 79.0905 43.792 79.1719C43.613 79.1719 43.3118 79.1719 42.8887 79.1719C42.4655 79.1882 41.9854 79.2126 41.4482 79.2451C40.9274 79.2777 40.374 79.3102 39.7881 79.3428C39.2184 79.3753 38.6732 79.3997 38.1523 79.416C37.6315 79.4486 37.1595 79.473 36.7363 79.4893C36.3294 79.5218 36.0283 79.5462 35.833 79.5625C35.7191 79.5788 35.5319 79.5951 35.2715 79.6113C35.0111 79.6439 34.7344 79.6846 34.4414 79.7334C34.1647 79.7985 33.9124 79.8717 33.6846 79.9531C33.4567 80.0508 33.3346 80.1729 33.3184 80.3193C33.3184 80.5635 33.4242 80.8076 33.6357 81.0518C33.8473 81.3122 34.1159 81.5645 34.4414 81.8086C34.7669 82.0527 35.125 82.2806 35.5156 82.4922C35.9063 82.7038 36.2806 82.891 36.6387 83.0537C37.013 83.2327 37.3467 83.363 37.6396 83.4443C37.9326 83.542 38.1442 83.599 38.2744 83.6152C38.5511 83.6478 38.9417 83.6803 39.4463 83.7129C39.9671 83.7454 40.5205 83.7699 41.1064 83.7861C41.6924 83.8024 42.2458 83.8105 42.7666 83.8105C43.2874 83.8268 43.6862 83.835 43.9629 83.835L43.8896 85.1777C42.5713 85.194 41.375 85.1859 40.3008 85.1533C39.2428 85.1208 38.2419 85.1126 37.2979 85.1289C36.3701 85.1452 35.4668 85.2184 34.5879 85.3486C33.709 85.4788 32.7975 85.7148 31.8535 86.0566C31.8047 86.0078 31.7396 85.9102 31.6582 85.7637C31.5605 85.6172 31.5117 85.5114 31.5117 85.4463C31.5117 85.0394 31.6501 84.7627 31.9268 84.6162C32.1872 84.486 32.4964 84.3965 32.8545 84.3477C33.2288 84.3151 33.5951 84.2826 33.9531 84.25C34.3275 84.2337 34.6204 84.1279 34.832 83.9326ZM36.4678 92.7705C36.0934 92.6077 35.6621 92.3962 35.1738 92.1357C34.6855 91.8916 34.2217 91.5986 33.7822 91.2568C33.3428 90.9313 32.9684 90.5488 32.6592 90.1094C32.3499 89.6699 32.1953 89.1816 32.1953 88.6445C32.1953 88.4004 32.2197 88.2051 32.2686 88.0586C32.3337 87.9284 32.4232 87.8063 32.5371 87.6924C32.651 87.5947 32.7894 87.4971 32.9521 87.3994C33.1149 87.318 33.2939 87.2122 33.4893 87.082C34.2868 87.0332 35.1413 87.0007 36.0527 86.9844C36.9805 86.9844 37.9001 87.0332 38.8115 87.1309C39.7393 87.2285 40.61 87.3913 41.4238 87.6191C42.2376 87.8633 42.9294 88.1969 43.499 88.6201C44.0687 89.0596 44.4756 89.6048 44.7197 90.2559C44.9639 90.9069 44.9801 91.6963 44.7686 92.624C45.2243 92.6729 45.8346 92.681 46.5996 92.6484C47.3646 92.6159 48.1702 92.5671 49.0166 92.502C49.863 92.4368 50.6768 92.3717 51.458 92.3066C52.2555 92.2415 52.9066 92.2008 53.4111 92.1846C53.5576 92.1846 53.6634 92.2497 53.7285 92.3799C53.8099 92.5264 53.8587 92.681 53.875 92.8438C53.8913 93.0065 53.8913 93.1611 53.875 93.3076C53.8587 93.4704 53.8343 93.5762 53.8018 93.625C51.7998 93.5924 49.8304 93.5843 47.8936 93.6006C45.973 93.6169 44.0524 93.6331 42.1318 93.6494C40.2275 93.682 38.3314 93.7145 36.4434 93.7471C34.5553 93.7796 32.6673 93.7959 30.7793 93.7959C30.6003 93.7959 30.4131 93.7796 30.2178 93.7471C30.0062 93.7308 29.9004 93.5924 29.9004 93.332C29.9004 93.2344 29.9329 93.1367 29.998 93.0391C30.0469 92.9414 30.1283 92.8763 30.2422 92.8438L36.4678 92.7705ZM43.5479 91.7207C43.5804 91.2161 43.377 90.7441 42.9375 90.3047C42.5143 89.8815 41.9609 89.5072 41.2773 89.1816C40.5938 88.8724 39.8369 88.6201 39.0068 88.4248C38.193 88.2295 37.4036 88.1074 36.6387 88.0586C35.89 88.026 35.2227 88.0749 34.6367 88.2051C34.0508 88.3516 33.652 88.6038 33.4404 88.9619C33.4404 89.32 33.5788 89.6536 33.8555 89.9629C34.1484 90.2721 34.5146 90.557 34.9541 90.8174C35.3936 91.0778 35.8818 91.3057 36.4189 91.501C36.9723 91.6963 37.5013 91.859 38.0059 91.9893C38.5104 92.1357 38.9661 92.2415 39.373 92.3066C39.7962 92.388 40.1136 92.4287 40.3252 92.4287C40.488 92.4287 40.7484 92.4368 41.1064 92.4531C41.4645 92.4694 41.8226 92.4613 42.1807 92.4287C42.5387 92.3962 42.8561 92.3229 43.1328 92.209C43.4095 92.1113 43.5479 91.9486 43.5479 91.7207ZM37.2734 96.042C37.2572 95.9606 37.2327 95.8385 37.2002 95.6758C37.1676 95.513 37.1595 95.3421 37.1758 95.1631C37.1921 94.984 37.2409 94.8294 37.3223 94.6992C37.4036 94.5527 37.542 94.4795 37.7373 94.4795C37.8512 94.4795 37.9326 94.5039 37.9814 94.5527C38.0303 94.6016 38.1035 94.6829 38.2012 94.7969C38.4941 95.1549 38.8685 95.4561 39.3242 95.7002C39.7962 95.9606 40.2926 96.1966 40.8135 96.4082C41.3506 96.6198 41.8796 96.8395 42.4004 97.0674C42.9375 97.3115 43.4176 97.5882 43.8408 97.8975C44.264 98.2067 44.6058 98.5892 44.8662 99.0449C45.1266 99.5007 45.2487 100.062 45.2324 100.729C45.2324 101.006 45.1673 101.315 45.0371 101.657C44.9069 101.999 44.7279 102.316 44.5 102.609C44.2884 102.902 44.028 103.146 43.7188 103.342C43.4095 103.537 43.0677 103.635 42.6934 103.635C42.5632 103.716 42.376 103.635 42.1318 103.391C41.8877 103.163 41.6191 102.845 41.3262 102.438C41.0495 102.032 40.7565 101.568 40.4473 101.047C40.1543 100.542 39.8776 100.054 39.6172 99.582C39.3568 99.11 39.1289 98.695 38.9336 98.3369C38.7383 97.9788 38.5918 97.7428 38.4941 97.6289C38.3314 97.5475 38.1442 97.4824 37.9326 97.4336C37.721 97.3848 37.5176 97.3441 37.3223 97.3115C37.1432 97.2952 36.9723 97.279 36.8096 97.2627C36.6631 97.2627 36.5492 97.2627 36.4678 97.2627C36.1585 97.2627 35.8167 97.2464 35.4424 97.2139C35.068 97.1976 34.71 97.2139 34.3682 97.2627C34.0426 97.3278 33.766 97.4661 33.5381 97.6777C33.3265 97.8893 33.2207 98.2474 33.2207 98.752C33.2207 99.2891 33.3509 99.7936 33.6113 100.266C33.888 100.738 34.2217 101.177 34.6123 101.584C35.0029 101.991 35.4261 102.357 35.8818 102.683C36.3376 103.024 36.7607 103.326 37.1514 103.586C37.5583 103.863 37.8919 104.107 38.1523 104.318C38.4128 104.53 38.543 104.709 38.543 104.855C38.543 105.018 38.5104 105.189 38.4453 105.368C38.3965 105.563 38.2663 105.661 38.0547 105.661C37.7617 105.661 37.4118 105.539 37.0049 105.295C36.598 105.067 36.1667 104.758 35.7109 104.367C35.2552 103.993 34.7995 103.553 34.3438 103.049C33.9043 102.561 33.5055 102.064 33.1475 101.56C32.8057 101.055 32.5208 100.559 32.293 100.07C32.0814 99.582 31.9756 99.1507 31.9756 98.7764C31.9756 98.0439 32.1546 97.4906 32.5127 97.1162C32.8708 96.7419 33.3184 96.4733 33.8555 96.3105C34.3926 96.1641 34.9622 96.0827 35.5645 96.0664C36.1829 96.0664 36.7526 96.0583 37.2734 96.042ZM43.8652 100.534C43.8652 100.257 43.7269 99.9645 43.4502 99.6553C43.1898 99.346 42.8643 99.0531 42.4736 98.7764C42.0993 98.516 41.7087 98.2962 41.3018 98.1172C40.9111 97.9544 40.5856 97.873 40.3252 97.873C40.3252 98.1172 40.4147 98.4671 40.5938 98.9229C40.7891 99.3949 41.0251 99.8587 41.3018 100.314C41.5785 100.77 41.8714 101.169 42.1807 101.511C42.4899 101.853 42.7829 102.023 43.0596 102.023C43.2061 102.023 43.3281 101.966 43.4258 101.853C43.5234 101.739 43.6048 101.6 43.6699 101.438C43.735 101.291 43.7839 101.136 43.8164 100.974C43.849 100.811 43.8652 100.664 43.8652 100.534Z" fill="black"/>
<path d="M9.10787 254.14C8.93787 254.02 8.85287 253.83 8.85287 253.57C8.85287 253.52 8.86287 253.435 8.88287 253.315C8.95287 253.015 9.08787 252.735 9.28787 252.475C9.49787 252.205 9.73787 251.99 10.0079 251.83C10.2179 251.71 10.4279 251.65 10.6379 251.65C10.8579 251.65 11.0279 251.725 11.1479 251.875C11.2379 251.995 11.2829 252.14 11.2829 252.31C11.2829 252.46 11.2379 252.65 11.1479 252.88C11.0479 253.16 10.8929 253.415 10.6829 253.645C10.4829 253.875 10.2529 254.05 9.99287 254.17C9.78287 254.27 9.59787 254.305 9.43787 254.275C9.28787 254.255 9.17787 254.21 9.10787 254.14ZM10.3829 262.795C10.3829 262.865 10.3679 262.945 10.3379 263.035C10.3179 263.125 10.3029 263.19 10.2929 263.23L10.2629 263.32C10.1629 263.69 9.98287 264.04 9.72287 264.37C9.46287 264.7 9.13787 264.865 8.74787 264.865C8.70787 264.865 8.67787 264.86 8.65787 264.85C8.49787 264.83 8.36787 264.77 8.26787 264.67C8.11787 264.49 8.04287 264.21 8.04287 263.83C8.04287 263.69 8.05287 263.53 8.07287 263.35C8.06287 263.32 8.06287 263.29 8.07287 263.26C8.07287 263.22 8.07287 263.195 8.07287 263.185C8.10287 262.475 8.20787 261.51 8.38787 260.29L8.44787 259.825C8.54787 259.145 8.61287 258.635 8.64287 258.295L8.70287 257.62C8.70287 257.55 8.70787 257.495 8.71787 257.455C8.73787 257.315 8.74287 257.225 8.73287 257.185C8.72287 257.175 8.71787 257.165 8.71787 257.155C8.71787 257.135 8.71287 257.12 8.70287 257.11C8.64287 257.03 8.61287 256.925 8.61287 256.795C8.61287 256.635 8.62787 256.475 8.65787 256.315C8.66787 256.285 8.67287 256.235 8.67287 256.165C8.74287 255.705 8.93787 255.31 9.25787 254.98C9.58787 254.65 9.89787 254.485 10.1879 254.485C10.2979 254.485 10.4029 254.51 10.5029 254.56C10.7529 254.69 10.8779 254.965 10.8779 255.385C10.8579 255.665 10.8479 255.875 10.8479 256.015L10.8329 256.405L10.7879 257.23C10.7779 257.75 10.7479 258.28 10.6979 258.82C10.6879 259.02 10.6279 259.68 10.5179 260.8L10.4729 261.265L10.4429 261.565L10.3529 262.39C10.3429 262.43 10.3379 262.465 10.3379 262.495C10.3479 262.515 10.3529 262.54 10.3529 262.57C10.3729 262.62 10.3779 262.66 10.3679 262.69L10.3829 262.795ZM19.6928 262.9C19.8128 262.99 19.8728 263.135 19.8728 263.335C19.8728 263.535 19.8078 263.755 19.6778 263.995C19.5478 264.225 19.3828 264.42 19.1828 264.58C18.9828 264.73 18.7878 264.805 18.5978 264.805C18.1778 264.805 17.9078 264.42 17.7878 263.65C17.7478 263.37 17.7278 263.055 17.7278 262.705C17.7278 262.525 17.7378 262.245 17.7578 261.865L17.7728 261.025C17.7728 260.585 17.7828 259.925 17.8028 259.045C17.8328 258.155 17.8478 257.27 17.8478 256.39C17.5978 257.06 17.2828 257.98 16.9028 259.15C16.7928 259.49 16.6828 259.77 16.5728 259.99C16.4628 260.21 16.3028 260.405 16.0928 260.575C15.8928 260.745 15.6928 260.83 15.4928 260.83C15.1128 260.83 14.7978 260.575 14.5478 260.065C14.2978 259.555 14.0828 258.98 13.9028 258.34L13.7678 259.45C13.6378 260.45 13.5178 261.25 13.4078 261.85C13.3078 262.45 13.1578 263.05 12.9578 263.65C12.8078 264.1 12.6328 264.485 12.4328 264.805C12.2428 265.115 11.9928 265.27 11.6828 265.27C11.3328 265.27 11.1578 265.09 11.1578 264.73C11.1578 264.48 11.2328 264.195 11.3828 263.875C11.3728 263.895 11.3628 263.915 11.3528 263.935C11.3528 263.945 11.3478 263.95 11.3378 263.95L11.4278 263.665C11.5178 263.365 11.5978 263.01 11.6678 262.6C11.8178 261.84 11.9578 260.985 12.0878 260.035L12.4478 257.41C12.5578 256.47 12.6778 255.565 12.8078 254.695C12.8778 254.185 12.9528 253.785 13.0328 253.495C13.1228 253.195 13.2828 252.91 13.5128 252.64C13.6228 252.51 13.7478 252.405 13.8878 252.325C14.0378 252.245 14.1778 252.205 14.3078 252.205C14.5278 252.205 14.6928 252.305 14.8028 252.505C14.8828 252.655 14.9328 252.9 14.9528 253.24L14.9978 253.6C15.0678 253.97 15.1578 254.375 15.2678 254.815C15.5378 255.895 15.7828 256.725 16.0028 257.305C16.0828 257.065 16.1328 256.92 16.1528 256.87C16.4328 256.05 16.6828 255.37 16.9028 254.83C17.1328 254.29 17.4078 253.79 17.7278 253.33C17.8778 253.12 18.0478 252.94 18.2378 252.79C18.4278 252.63 18.6178 252.55 18.8078 252.55C19.0178 252.55 19.1678 252.625 19.2578 252.775C19.3578 252.915 19.4178 253.06 19.4378 253.21C19.4678 253.35 19.4978 253.59 19.5278 253.93C19.5678 254.38 19.5878 254.9 19.5878 255.49C19.5878 255.92 19.5678 256.575 19.5278 257.455C19.5178 257.635 19.5078 257.86 19.4978 258.13C19.4878 258.4 19.4828 258.715 19.4828 259.075L19.4678 260.095C19.4678 260.425 19.4778 260.91 19.4978 261.55L19.4828 262.03C19.4828 262.49 19.5528 262.78 19.6928 262.9ZM24.1697 257.68C24.9797 256.92 25.7047 256.285 26.3447 255.775C25.8247 255.745 25.0447 255.68 24.0047 255.58C24.0847 256.34 24.1397 257.04 24.1697 257.68ZM29.3747 253.84C29.5047 253.93 29.5697 254.05 29.5697 254.2C29.5697 254.56 29.2647 255.03 28.6547 255.61C28.0547 256.18 27.1997 256.905 26.0897 257.785C25.5097 258.245 25.0697 258.6 24.7697 258.85C24.4797 259.1 24.2997 259.29 24.2297 259.42C24.1797 259.51 24.1447 259.615 24.1247 259.735C24.1047 259.855 24.0947 259.985 24.0947 260.125C24.0947 260.255 24.0897 260.365 24.0797 260.455C24.0097 260.945 23.9297 261.375 23.8397 261.745C23.7497 262.115 23.6447 262.44 23.5247 262.72C23.4147 263 23.2597 263.25 23.0597 263.47C22.9297 263.62 22.7797 263.76 22.6097 263.89C22.4397 264.01 22.2797 264.07 22.1297 264.07C21.7897 264.07 21.6197 263.795 21.6197 263.245C21.6197 263.065 21.6347 262.86 21.6647 262.63C21.7047 262.39 21.7297 262.235 21.7397 262.165L21.8147 261.685C21.5947 261.865 21.3947 261.955 21.2147 261.955C21.0947 261.955 21.0047 261.915 20.9447 261.835C20.8847 261.755 20.8547 261.645 20.8547 261.505C20.8547 261.305 20.9097 261.1 21.0197 260.89C21.1097 260.71 21.2697 260.495 21.4997 260.245C21.6797 260.035 21.8047 259.875 21.8747 259.765C21.9547 259.645 22.0097 259.515 22.0397 259.375C22.1197 258.865 22.1597 258.375 22.1597 257.905C22.1597 257.525 22.1397 257.19 22.0997 256.9C22.0697 256.66 22.0247 256.425 21.9647 256.195C21.9547 256.145 21.9247 255.995 21.8747 255.745C21.8247 255.485 21.7997 255.245 21.7997 255.025C21.7997 253.965 22.3997 253.435 23.5997 253.435C23.7297 253.435 23.9247 253.445 24.1847 253.465C24.8247 253.525 25.5897 253.565 26.4797 253.585L26.9447 253.6L28.0397 253.585C28.6697 253.585 29.1147 253.67 29.3747 253.84ZM36.8694 262.12C37.2494 262.17 37.4394 262.37 37.4394 262.72C37.4394 262.85 37.4094 262.995 37.3494 263.155C37.2994 263.305 37.2294 263.445 37.1394 263.575C36.9494 263.855 36.7294 264.045 36.4794 264.145C36.2394 264.245 35.9244 264.305 35.5344 264.325C34.7444 264.355 34.1794 264.37 33.8394 264.37C32.8594 264.4 32.1794 264.425 31.7994 264.445C31.0194 264.475 30.3344 264.575 29.7444 264.745C29.5044 264.805 29.3394 264.835 29.2494 264.835C29.1394 264.835 29.0544 264.8 28.9944 264.73C28.9344 264.66 28.9044 264.535 28.9044 264.355C28.9044 264.165 28.9394 263.97 29.0094 263.77C29.0894 263.56 29.2094 263.28 29.3694 262.93C29.5094 262.66 29.6194 262.41 29.6994 262.18C29.7194 262.11 29.7644 261.97 29.8344 261.76C29.9144 261.55 29.9694 261.36 29.9994 261.19C30.0094 261.14 30.0144 261.08 30.0144 261.01C30.0144 260.95 30.0044 260.88 29.9844 260.8C29.9644 260.71 29.9494 260.625 29.9394 260.545C29.9294 260.385 29.9494 260.23 29.9994 260.08C30.0594 259.92 30.1444 259.74 30.2544 259.54C30.4244 259.19 30.5244 258.94 30.5544 258.79C30.7344 257.93 30.8344 257.28 30.8544 256.84L30.8694 256.375C30.8694 256.075 30.8394 255.855 30.7794 255.715C30.7294 255.595 30.6394 255.475 30.5094 255.355C30.3894 255.235 30.3094 255.135 30.2694 255.055C30.2194 254.965 30.1944 254.845 30.1944 254.695C30.1944 254.525 30.2344 254.345 30.3144 254.155C30.4044 253.955 30.5144 253.775 30.6444 253.615C30.8744 253.315 31.1494 253.165 31.4694 253.165C31.7094 253.165 31.9494 253.235 32.1894 253.375C32.4394 253.515 32.7394 253.72 33.0894 253.99C33.3494 254.19 33.5444 254.33 33.6744 254.41C34.1444 254.69 34.5394 254.905 34.8594 255.055C35.1794 255.205 35.5194 255.315 35.8794 255.385C36.0494 255.415 36.2094 255.43 36.3594 255.43C36.5194 255.43 36.6794 255.415 36.8394 255.385C36.8994 255.375 36.9944 255.345 37.1244 255.295C37.2644 255.235 37.3694 255.205 37.4394 255.205C37.5094 255.205 37.5694 255.225 37.6194 255.265C37.7194 255.335 37.7694 255.45 37.7694 255.61C37.7694 255.77 37.7194 255.95 37.6194 256.15C37.5294 256.34 37.4344 256.5 37.3344 256.63C37.0244 257.01 36.5844 257.24 36.0144 257.32C35.8344 257.35 35.6494 257.365 35.4594 257.365C34.9494 257.365 34.4494 257.28 33.9594 257.11C33.4694 256.93 32.9094 256.68 32.2794 256.36C32.2194 257.13 32.1044 257.93 31.9344 258.76L32.4444 258.64C32.9744 258.51 33.4044 258.415 33.7344 258.355C34.0744 258.285 34.4044 258.25 34.7244 258.25C34.8644 258.25 34.9694 258.255 35.0394 258.265C35.3894 258.295 35.5644 258.47 35.5644 258.79C35.5644 258.94 35.5244 259.105 35.4444 259.285C35.3744 259.465 35.2844 259.63 35.1744 259.78C34.9744 260.05 34.7294 260.225 34.4394 260.305C34.1494 260.385 33.7744 260.43 33.3144 260.44L32.8044 260.47C32.4444 260.51 32.1694 260.545 31.9794 260.575C31.7894 260.595 31.6694 260.62 31.6194 260.65C31.5794 260.67 31.5394 260.715 31.4994 260.785C31.4694 260.855 31.4344 260.92 31.3944 260.98C31.3244 261.1 31.2594 261.255 31.1994 261.445C31.1394 261.635 31.0894 261.825 31.0494 262.015C30.9894 262.295 30.9394 262.495 30.8994 262.615C31.4594 262.485 32.2744 262.365 33.3444 262.255C34.4244 262.135 35.3344 262.075 36.0744 262.075C36.3944 262.075 36.6594 262.09 36.8694 262.12ZM40.2351 257.17C40.2251 257.24 40.2201 257.34 40.2201 257.47C40.2201 257.62 40.2301 257.825 40.2501 258.085C40.2701 258.365 40.2801 258.575 40.2801 258.715C40.3501 258.665 40.4851 258.59 40.6851 258.49C41.1051 258.27 41.4351 258.06 41.6751 257.86C41.9151 257.66 42.0351 257.435 42.0351 257.185C42.0351 257.135 42.0301 257.095 42.0201 257.065C41.9801 256.845 41.8751 256.65 41.7051 256.48C41.5351 256.31 41.3701 256.185 41.2101 256.105C41.0501 256.015 40.7851 255.875 40.4151 255.685C40.3451 256.175 40.2851 256.67 40.2351 257.17ZM42.0501 257.44L42.0951 257.365L42.0501 257.44ZM42.1101 257.17L42.1251 257.26L42.1101 257.17ZM44.3001 259.18C44.3801 259.16 44.4351 259.15 44.4651 259.15C44.7351 259.15 44.8701 259.445 44.8701 260.035C44.8701 260.345 44.8451 260.64 44.7951 260.92C44.7551 261.2 44.7351 261.355 44.7351 261.385C44.6651 261.895 44.5701 262.345 44.4501 262.735C44.3301 263.125 44.1501 263.485 43.9101 263.815C43.5901 264.245 43.2751 264.46 42.9651 264.46C42.7051 264.46 42.4001 264.315 42.0501 264.025L40.5801 262.81L39.9051 262.24C39.8551 262.46 39.7451 262.755 39.5751 263.125C39.4151 263.485 39.2201 263.81 38.9901 264.1C38.7601 264.38 38.5201 264.52 38.2701 264.52C38.2101 264.52 38.1401 264.505 38.0601 264.475C37.8601 264.395 37.7601 264.12 37.7601 263.65C37.7601 263.21 37.8351 262.66 37.9851 262L38.0601 261.535C38.0701 261.435 38.1051 261.185 38.1651 260.785C38.2251 260.385 38.2701 260.015 38.3001 259.675C38.3301 259.335 38.3451 259.02 38.3451 258.73C38.3451 258.41 38.3351 258.17 38.3151 258.01C38.2751 257.68 38.2401 257.445 38.2101 257.305C38.1101 256.665 38.0601 256.17 38.0601 255.82C38.0601 255.41 38.1201 255.05 38.2401 254.74C38.4401 254.21 38.7301 253.825 39.1101 253.585C39.5001 253.335 39.9351 253.21 40.4151 253.21C40.9851 253.21 41.5601 253.36 42.1401 253.66C42.7201 253.95 43.1701 254.305 43.4901 254.725C43.7701 255.085 43.9101 255.5 43.9101 255.97C43.9101 256.46 43.7601 256.96 43.4601 257.47C43.1701 257.98 42.8001 258.455 42.3501 258.895C41.9101 259.335 41.4551 259.695 40.9851 259.975C41.3751 260.265 41.7501 260.565 42.1101 260.875C42.5301 261.215 42.8451 261.465 43.0551 261.625C43.0551 260.275 43.4701 259.46 44.3001 259.18ZM46.0512 254.14C45.8812 254.02 45.7962 253.83 45.7962 253.57C45.7962 253.52 45.8062 253.435 45.8262 253.315C45.8962 253.015 46.0312 252.735 46.2312 252.475C46.4412 252.205 46.6812 251.99 46.9512 251.83C47.1612 251.71 47.3712 251.65 47.5812 251.65C47.8012 251.65 47.9712 251.725 48.0912 251.875C48.1812 251.995 48.2262 252.14 48.2262 252.31C48.2262 252.46 48.1812 252.65 48.0912 252.88C47.9912 253.16 47.8362 253.415 47.6262 253.645C47.4262 253.875 47.1962 254.05 46.9362 254.17C46.7262 254.27 46.5412 254.305 46.3812 254.275C46.2312 254.255 46.1212 254.21 46.0512 254.14ZM47.3262 262.795C47.3262 262.865 47.3112 262.945 47.2812 263.035C47.2612 263.125 47.2462 263.19 47.2362 263.23L47.2062 263.32C47.1062 263.69 46.9262 264.04 46.6662 264.37C46.4062 264.7 46.0812 264.865 45.6912 264.865C45.6512 264.865 45.6212 264.86 45.6012 264.85C45.4412 264.83 45.3112 264.77 45.2112 264.67C45.0612 264.49 44.9862 264.21 44.9862 263.83C44.9862 263.69 44.9962 263.53 45.0162 263.35C45.0062 263.32 45.0062 263.29 45.0162 263.26C45.0162 263.22 45.0162 263.195 45.0162 263.185C45.0462 262.475 45.1512 261.51 45.3312 260.29L45.3912 259.825C45.4912 259.145 45.5562 258.635 45.5862 258.295L45.6462 257.62C45.6462 257.55 45.6512 257.495 45.6612 257.455C45.6812 257.315 45.6862 257.225 45.6762 257.185C45.6662 257.175 45.6612 257.165 45.6612 257.155C45.6612 257.135 45.6562 257.12 45.6462 257.11C45.5862 257.03 45.5562 256.925 45.5562 256.795C45.5562 256.635 45.5712 256.475 45.6012 256.315C45.6112 256.285 45.6162 256.235 45.6162 256.165C45.6862 255.705 45.8812 255.31 46.2012 254.98C46.5312 254.65 46.8412 254.485 47.1312 254.485C47.2412 254.485 47.3462 254.51 47.4462 254.56C47.6962 254.69 47.8212 254.965 47.8212 255.385C47.8012 255.665 47.7912 255.875 47.7912 256.015L47.7762 256.405L47.7312 257.23C47.7212 257.75 47.6912 258.28 47.6412 258.82C47.6312 259.02 47.5712 259.68 47.4612 260.8L47.4162 261.265L47.3862 261.565L47.2962 262.39C47.2862 262.43 47.2812 262.465 47.2812 262.495C47.2912 262.515 47.2962 262.54 47.2962 262.57C47.3162 262.62 47.3212 262.66 47.3112 262.69L47.3262 262.795ZM53.5312 259.42C53.6912 259.48 53.8712 259.565 54.0712 259.675C53.7712 258.595 53.5412 257.675 53.3812 256.915C52.9912 257.695 52.4762 258.645 51.8362 259.765C51.7862 259.875 51.7012 260.03 51.5812 260.23C51.9812 259.61 52.4362 259.3 52.9462 259.3C53.1462 259.3 53.3412 259.34 53.5312 259.42ZM55.9312 257.29C56.3412 258.68 56.8262 259.975 57.3862 261.175L57.5512 261.505C57.6912 261.745 57.7962 261.95 57.8662 262.12C57.9362 262.28 57.9712 262.445 57.9712 262.615C57.9712 262.875 57.8612 263.145 57.6412 263.425C57.4212 263.695 57.1812 263.895 56.9212 264.025C56.7612 264.115 56.5912 264.16 56.4112 264.16C56.1112 264.16 55.8112 264.07 55.5112 263.89C55.2212 263.7 54.8712 263.43 54.4612 263.08C54.1712 262.84 53.9512 262.67 53.8012 262.57C53.7012 262.5 53.4912 262.39 53.1712 262.24C52.6112 261.96 52.1762 261.71 51.8662 261.49C51.5662 261.27 51.4162 261.01 51.4162 260.71C51.4162 260.63 51.4512 260.51 51.5212 260.35C51.3312 260.69 51.0662 261.21 50.7262 261.91C50.3062 262.76 50.0662 263.235 50.0062 263.335C49.8862 263.555 49.6912 263.8 49.4212 264.07C49.1512 264.33 48.9012 264.46 48.6712 264.46C48.5512 264.46 48.4462 264.415 48.3562 264.325C48.2862 264.255 48.2512 264.145 48.2512 263.995C48.2512 263.575 48.5712 262.83 49.2112 261.76C49.2512 261.68 49.3162 261.565 49.4062 261.415L49.7362 260.785C50.4162 259.505 50.9112 258.54 51.2212 257.89C51.4012 257.51 51.6612 256.94 52.0012 256.18L52.5412 254.965C52.7612 254.495 52.9812 254.105 53.2012 253.795C53.4212 253.475 53.6962 253.23 54.0262 253.06C54.1962 252.97 54.3562 252.925 54.5062 252.925C54.7062 252.925 54.8512 253.02 54.9412 253.21C55.0312 253.39 55.1112 253.66 55.1812 254.02C55.3612 255.05 55.6112 256.14 55.9312 257.29ZM64.4469 263.29C64.3969 263.35 64.2769 263.51 64.0869 263.77C63.9069 264.03 63.7069 264.255 63.4869 264.445C63.2769 264.625 63.0819 264.715 62.9019 264.715C62.7919 264.715 62.6869 264.68 62.5869 264.61C62.4969 264.55 62.4319 264.45 62.3919 264.31C62.3519 264.17 62.3119 263.98 62.2719 263.74C62.2119 263.38 62.1319 263.115 62.0319 262.945C61.9419 262.765 61.7819 262.695 61.5519 262.735C61.4019 262.765 61.2319 262.865 61.0419 263.035C60.8519 263.205 60.6819 263.37 60.5319 263.53C60.3819 263.69 60.2769 263.8 60.2169 263.86L59.9169 264.145C59.7669 264.305 59.6369 264.435 59.5269 264.535C59.4169 264.635 59.2969 264.715 59.1669 264.775C59.0169 264.845 58.8819 264.88 58.7619 264.88C58.5019 264.88 58.3719 264.67 58.3719 264.25C58.3719 264.04 58.3919 263.815 58.4319 263.575C58.4719 263.335 58.4969 263.195 58.5069 263.155C58.9469 259.815 59.3019 257.23 59.5719 255.4C59.6819 254.71 59.8269 254.105 60.0069 253.585C60.1969 253.065 60.5069 252.745 60.9369 252.625C61.0369 252.605 61.1019 252.595 61.1319 252.595C61.2919 252.595 61.4069 252.655 61.4769 252.775C61.5469 252.885 61.5819 253.035 61.5819 253.225C61.5819 253.405 61.5519 253.59 61.4919 253.78C61.4319 253.97 61.3619 254.12 61.2819 254.23V254.425C61.2819 254.575 61.2619 254.745 61.2219 254.935C61.1919 255.125 61.1719 255.26 61.1619 255.34L60.8919 257.29L60.2769 261.745C60.6669 261.395 61.0319 261.105 61.3719 260.875C61.7119 260.645 62.0469 260.53 62.3769 260.53C62.8269 260.53 63.1619 260.72 63.3819 261.1C63.6019 261.48 63.7919 261.965 63.9519 262.555C64.1019 262.395 64.2419 262.315 64.3719 262.315C64.4619 262.315 64.5319 262.355 64.5819 262.435C64.6319 262.515 64.6569 262.615 64.6569 262.735C64.6569 262.955 64.5869 263.14 64.4469 263.29ZM70.6313 254.14C70.4613 254.02 70.3763 253.83 70.3763 253.57C70.3763 253.52 70.3863 253.435 70.4063 253.315C70.4763 253.015 70.6113 252.735 70.8113 252.475C71.0213 252.205 71.2613 251.99 71.5313 251.83C71.7413 251.71 71.9513 251.65 72.1613 251.65C72.3813 251.65 72.5513 251.725 72.6713 251.875C72.7613 251.995 72.8063 252.14 72.8063 252.31C72.8063 252.46 72.7613 252.65 72.6713 252.88C72.5713 253.16 72.4163 253.415 72.2063 253.645C72.0063 253.875 71.7763 254.05 71.5163 254.17C71.3063 254.27 71.1213 254.305 70.9613 254.275C70.8113 254.255 70.7013 254.21 70.6313 254.14ZM71.9063 262.795C71.9063 262.865 71.8913 262.945 71.8613 263.035C71.8413 263.125 71.8263 263.19 71.8163 263.23L71.7863 263.32C71.6863 263.69 71.5063 264.04 71.2463 264.37C70.9863 264.7 70.6613 264.865 70.2713 264.865C70.2313 264.865 70.2013 264.86 70.1813 264.85C70.0213 264.83 69.8913 264.77 69.7913 264.67C69.6413 264.49 69.5663 264.21 69.5663 263.83C69.5663 263.69 69.5763 263.53 69.5963 263.35C69.5863 263.32 69.5863 263.29 69.5963 263.26C69.5963 263.22 69.5963 263.195 69.5963 263.185C69.6263 262.475 69.7313 261.51 69.9113 260.29L69.9713 259.825C70.0713 259.145 70.1363 258.635 70.1663 258.295L70.2263 257.62C70.2263 257.55 70.2313 257.495 70.2413 257.455C70.2613 257.315 70.2663 257.225 70.2563 257.185C70.2463 257.175 70.2413 257.165 70.2413 257.155C70.2413 257.135 70.2363 257.12 70.2263 257.11C70.1663 257.03 70.1363 256.925 70.1363 256.795C70.1363 256.635 70.1513 256.475 70.1813 256.315C70.1913 256.285 70.1963 256.235 70.1963 256.165C70.2663 255.705 70.4613 255.31 70.7813 254.98C71.1113 254.65 71.4213 254.485 71.7113 254.485C71.8213 254.485 71.9263 254.51 72.0263 254.56C72.2763 254.69 72.4013 254.965 72.4013 255.385C72.3813 255.665 72.3713 255.875 72.3713 256.015L72.3563 256.405L72.3113 257.23C72.3013 257.75 72.2713 258.28 72.2213 258.82C72.2113 259.02 72.1513 259.68 72.0413 260.8L71.9963 261.265L71.9663 261.565L71.8763 262.39C71.8663 262.43 71.8613 262.465 71.8613 262.495C71.8713 262.515 71.8763 262.54 71.8763 262.57C71.8963 262.62 71.9013 262.66 71.8913 262.69L71.9063 262.795ZM75.9813 257.68C76.7913 256.92 77.5163 256.285 78.1563 255.775C77.6363 255.745 76.8563 255.68 75.8163 255.58C75.8963 256.34 75.9513 257.04 75.9813 257.68ZM81.1863 253.84C81.3163 253.93 81.3813 254.05 81.3813 254.2C81.3813 254.56 81.0763 255.03 80.4663 255.61C79.8663 256.18 79.0113 256.905 77.9013 257.785C77.3213 258.245 76.8813 258.6 76.5813 258.85C76.2913 259.1 76.1113 259.29 76.0413 259.42C75.9913 259.51 75.9563 259.615 75.9363 259.735C75.9163 259.855 75.9063 259.985 75.9063 260.125C75.9063 260.255 75.9013 260.365 75.8913 260.455C75.8213 260.945 75.7413 261.375 75.6513 261.745C75.5613 262.115 75.4563 262.44 75.3363 262.72C75.2263 263 75.0713 263.25 74.8713 263.47C74.7413 263.62 74.5913 263.76 74.4213 263.89C74.2513 264.01 74.0913 264.07 73.9413 264.07C73.6013 264.07 73.4313 263.795 73.4313 263.245C73.4313 263.065 73.4463 262.86 73.4763 262.63C73.5163 262.39 73.5413 262.235 73.5513 262.165L73.6263 261.685C73.4063 261.865 73.2063 261.955 73.0263 261.955C72.9063 261.955 72.8163 261.915 72.7563 261.835C72.6963 261.755 72.6663 261.645 72.6663 261.505C72.6663 261.305 72.7213 261.1 72.8313 260.89C72.9213 260.71 73.0813 260.495 73.3113 260.245C73.4913 260.035 73.6163 259.875 73.6863 259.765C73.7663 259.645 73.8213 259.515 73.8513 259.375C73.9313 258.865 73.9713 258.375 73.9713 257.905C73.9713 257.525 73.9513 257.19 73.9113 256.9C73.8813 256.66 73.8363 256.425 73.7763 256.195C73.7663 256.145 73.7363 255.995 73.6863 255.745C73.6363 255.485 73.6113 255.245 73.6113 255.025C73.6113 253.965 74.2113 253.435 75.4113 253.435C75.5413 253.435 75.7363 253.445 75.9963 253.465C76.6363 253.525 77.4013 253.565 78.2913 253.585L78.7563 253.6L79.8513 253.585C80.4813 253.585 80.9263 253.67 81.1863 253.84ZM83.3115 259.42C83.4715 259.48 83.6515 259.565 83.8515 259.675C83.5515 258.595 83.3215 257.675 83.1615 256.915C82.7715 257.695 82.2565 258.645 81.6165 259.765C81.5665 259.875 81.4815 260.03 81.3615 260.23C81.7615 259.61 82.2165 259.3 82.7265 259.3C82.9265 259.3 83.1215 259.34 83.3115 259.42ZM85.7115 257.29C86.1215 258.68 86.6065 259.975 87.1665 261.175L87.3315 261.505C87.4715 261.745 87.5765 261.95 87.6465 262.12C87.7165 262.28 87.7515 262.445 87.7515 262.615C87.7515 262.875 87.6415 263.145 87.4215 263.425C87.2015 263.695 86.9615 263.895 86.7015 264.025C86.5415 264.115 86.3715 264.16 86.1915 264.16C85.8915 264.16 85.5915 264.07 85.2915 263.89C85.0015 263.7 84.6515 263.43 84.2415 263.08C83.9515 262.84 83.7315 262.67 83.5815 262.57C83.4815 262.5 83.2715 262.39 82.9515 262.24C82.3915 261.96 81.9565 261.71 81.6465 261.49C81.3465 261.27 81.1965 261.01 81.1965 260.71C81.1965 260.63 81.2315 260.51 81.3015 260.35C81.1115 260.69 80.8465 261.21 80.5065 261.91C80.0865 262.76 79.8465 263.235 79.7865 263.335C79.6665 263.555 79.4715 263.8 79.2015 264.07C78.9315 264.33 78.6815 264.46 78.4515 264.46C78.3315 264.46 78.2265 264.415 78.1365 264.325C78.0665 264.255 78.0315 264.145 78.0315 263.995C78.0315 263.575 78.3515 262.83 78.9915 261.76C79.0315 261.68 79.0965 261.565 79.1865 261.415L79.5165 260.785C80.1965 259.505 80.6915 258.54 81.0015 257.89C81.1815 257.51 81.4415 256.94 81.7815 256.18L82.3215 254.965C82.5415 254.495 82.7615 254.105 82.9815 253.795C83.2015 253.475 83.4765 253.23 83.8065 253.06C83.9765 252.97 84.1365 252.925 84.2865 252.925C84.4865 252.925 84.6315 253.02 84.7215 253.21C84.8115 253.39 84.8915 253.66 84.9615 254.02C85.1415 255.05 85.3915 256.14 85.7115 257.29Z" fill="black"/>
</svg>
